# xmcd
# 
# Track frame offsets:
#     150
#     11102
#     24497
#     38640
#     52927
#     63200
#     75342
#     88060
#     99345
#     112717
#     125385
#     139142
#     149227
#     160087
#     176867
#     190502
#     202282
#     216247
#     227262
#     240870
# 
# Disc length: 3380
# 
# Revision: 2
# Processed by: cddbd v1.5.2PL0 Copyright (c) Steve Scherf et al.
# Submitted via: BonkEnc v1.0.8
# 
DISCID=020d3214
DTITLE=Various Artist - The Very Best of Country Radio - CD2
DYEAR=1999
DGENRE=Country
TTITLE0=Buck Owens - I've Got A Tiger By The Tail
TTITLE1=Hank Snow - Ninety Miles An Hour (Down A Dead End Street)
TTITLE2=Del Reeves - Girl On The Billboard
TTITLE3=Glen Campbell - Wichita Lineman
TTITLE4=Porter Wagoner - Green, Green Grass Of Home
TTITLE5=Wynn Stewart - It's Such A Pretty World Today
TTITLE6=Burl Ives - Funny Way Of Laughing
TTITLE7=Jody Miller - Queen Of The House
TTITLE8=Charley Pride - Kaw-Liga
TTITLE9=Jim Reeves - Distant Drums
TTITLE10=Connie Smith - Aint' Had No Lovin'
TTITLE11=Bill Anderson and Jan Howard - For Loving You
TTITLE12=Hank Locklin - Please Help Me, I'm Falling
TTITLE13=Jim Ed Brown - Pop A Top
TTITLE14=Dottie West And Don Gibson - Rings Of Gold
TTITLE15=George Jones - She Thinks I Still Care
TTITLE16=Tammy Wynette - D-I-V-O-R-C-E
TTITLE17=Willie Nelson - The Party's Over
TTITLE18=Jimmie Dean And Dottie West - For The Good Times
TTITLE19=Eddy Arnold - Then You Can Tell Me Goodbye
EXTD=
EXTT0=
EXTT1=
EXTT2=
EXTT3=
EXTT4=
EXTT5=
EXTT6=
EXTT7=
EXTT8=
EXTT9=
EXTT10=
EXTT11=
EXTT12=
EXTT13=
EXTT14=
EXTT15=
EXTT16=
EXTT17=
EXTT18=
EXTT19=
PLAYORDER=
